<svg xmlns="http://www.w3.org/2000/svg" width="1200" height="900" viewBox="0 0 1200 900"><rect width="1200" height="900" fill="#f7faf5"/><ellipse cx="610" cy="690" rx="390" ry="46" fill="#d8e2db"/><path d="M190 610c110-5 162-50 235-128 45-49 103-76 176-71 76 5 134 47 199 83 86 47 169 64 282 54 14 87-25 143-120 166H287c-74 0-109-40-97-104z" fill="#17221c"/><path d="M231 653h813c-7 46-42 78-101 95H290c-62-8-93-40-59-95z" fill="#4b5350"/><path d="M545 438l-90 123 176-24 172 56-151-92-13-88c-36-7-67 1-94 25z" fill="#dbe3df"/><text x="600" y="800" text-anchor="middle" font-family="Arial" font-size="36" font-weight="700" fill="#175633">TsewangBista Shoes</text></svg>
