<svg xmlns="http://www.w3.org/2000/svg" width="1200" height="900" viewBox="0 0 1200 900"><rect width="1200" height="900" fill="#fbfdf9"/><ellipse cx="604" cy="705" rx="395" ry="44" fill="#dae5dd"/><path d="M180 615c125-10 204-76 301-169 53-51 134-72 221-46 93 28 157 103 279 118 74 9 94 26 107 62 16 45-14 97-80 129H279c-78 0-118-35-99-94z" fill="#f4f7f4"/><path d="M431 479h278l-51 158H367z" fill="#17221c"/><path d="M206 646h842c-3 46-39 80-109 101H292c-69-8-105-43-86-101z" fill="#222b27"/><text x="600" y="805" text-anchor="middle" font-family="Arial" font-size="36" font-weight="700" fill="#175633">Lightweight Daily Wear</text></svg>
