<svg xmlns="http://www.w3.org/2000/svg" width="1200" height="900" viewBox="0 0 1200 900"><rect width="1200" height="900" fill="#f2eee8"/><ellipse cx="600" cy="704" rx="395" ry="52" fill="#d3cabf"/><path d="M190 620c129-27 214-94 318-191 46-43 111-55 183-19 88 45 141 123 253 144 73 14 103 36 109 75 8 50-33 88-113 110H282c-66-7-99-38-92-119z" fill="#ede4da"/><path d="M214 650h822c-13 45-54 77-123 96H298c-67-8-101-40-84-96z" fill="#e86f45"/><path d="M720 518c75 42 144 65 221 68" stroke="#17221c" stroke-width="31" stroke-linecap="round" fill="none"/><text x="600" y="805" text-anchor="middle" font-family="Arial" font-size="36" font-weight="700" fill="#175633">Durable Quality</text></svg>
