<svg xmlns="http://www.w3.org/2000/svg" width="1200" height="900" viewBox="0 0 1200 900"><rect width="1200" height="900" fill="#f7faf5"/><ellipse cx="604" cy="700" rx="405" ry="48" fill="#d8e2db"/><path d="M192 612c124-12 194-60 303-145 58-45 124-60 199-42 95 23 155 88 263 106 78 13 108 35 116 72 11 52-29 96-111 128H274c-65-8-96-43-82-119z" fill="#ff4d6d"/><path d="M203 650h854c-5 48-43 82-115 101H294c-68-8-103-42-91-101z" fill="#a6ddf7"/><path d="M725 522c62 33 129 54 203 62" stroke="#0aa9d9" stroke-width="32" stroke-linecap="round" fill="none"/><text x="600" y="805" text-anchor="middle" font-family="Arial" font-size="36" font-weight="700" fill="#175633">Stylish Look</text></svg>
